<?xml version="1.0" encoding="utf-8"?>
<!-- Generator: Adobe Illustrator 24.0.1, SVG Export Plug-In . SVG Version: 6.00 Build 0)  -->
<svg version="1.1" id="Camada_2_1_" xmlns="http://www.w3.org/2000/svg" xmlns:xlink="http://www.w3.org/1999/xlink" x="0px"
	 y="0px" viewBox="0 0 500 500" style="enable-background:new 0 0 500 500;" xml:space="preserve">
<style type="text/css">
	.st0{display:none;fill:none;stroke:#000000;stroke-width:3;stroke-miterlimit:10;}
	.st1{stroke:#000000;stroke-width:3;stroke-miterlimit:10;}
</style>
<path class="st0" d="M249.5,97.7c0.1,0.3,0.5,0.4,0.8,0.3c0.1-0.1,0.2-0.1,0.3-0.3C262.9,70.4,327.4,32,366.4,32S500,54.5,500,181.8
	S316,419.9,250.7,467.7c-0.4,0.3-1,0.3-1.3,0C184,419.9,0,308.9,0,181.8S94.1,32,133.6,32S237.1,70.2,249.5,97.7z"/>
<path class="st1" d="M249.5,97.7c0.1,0.3,0.5,0.4,0.8,0.3c0.1-0.1,0.2-0.1,0.3-0.3C262.9,70.4,327.4,32,366.4,32S500,54.5,500,181.8
	S316,419.9,250.7,467.7c-0.4,0.3-1,0.3-1.3,0C184,419.9,0,308.9,0,181.8S94.1,32,133.6,32S237.1,70.2,249.5,97.7z"/>
</svg>
