<svg id="Camada_2" data-name="Camada 2" xmlns="http://www.w3.org/2000/svg" viewBox="0 0 1920 500"><defs><style>.cls-1{stroke:#000;stroke-miterlimit:10;}</style></defs><title>Prancheta 1</title><path class="cls-1" d="M738.83,195.07c5.28-5.16,10-6.66,16.69-11.81S767.4,154.45,780.27,146s85.85-26.35,97-39.81c-11.93,21.64-38.59,65.38-57.58,76.58s-43.28,9.87-55.77,6.58-23.08,5.72-23.08,5.72Z"/><path class="cls-1" d="M712.33,188.88c8.22,5.77,23,25.59,22.83,33.34s-.91,20.94,4.28,31.76,24,25.62,36.16,34.6c13.57,10,29.25,15.12,39.15,48.17-3.49-24.06-7.44-65.07-23-92.73s-46.09-31.11-54.07-35.74-13.15-10.26-16-16.4S712.33,188.88,712.33,188.88Z"/><path class="cls-1" d="M864,218.92c6-2.11,23.72,1.52,35.48-23.44s27.75-24.4,50.71-29.81,29.94-5.79,45.72-22.69c-13.21,21.62-37.66,57.62-52.6,67.22-16.15,7.21-43,3.69-49.53,4.33s-18.34,5.1-19.94,7.58S864,218.92,864,218.92Z"/><path class="cls-1" d="M857.67,213.86c1.19,4,9.71,20.23,8.51,27.79s-4.29,13.59-1.68,25.74,28.07,41.47,34.26,49c7.5,9.12,12.54,25.28,12.51,32.78,1.8-7.93,2.19-59.55-5.19-83-7.25-23.08-30.6-30.18-35.64-35.64-4.76-5.15-8.76-11.67-7.8-13.58S857.67,213.86,857.67,213.86Z"/><path class="cls-1" d="M940.79,240.54c1.57,2.58,9.94,9.69,11.15,14.37s-.36,17.32,9.18,26.64,38.23,21.33,44.79,30.78c5.3,7.74,4.56,8.49,5.3,10.16-1.69-10.89-10.22-48.2-21.62-57.38s-23.21-12.72-34.38-15.48-7.9-8.47-7.9-8.47Z"/><path class="cls-1" d="M961.35,245.21c2.88-2.91,7-8,13.32-8.31s25.83.45,34.47-6.93,22-24.3,29.16-44.1,9-22.68,10.44-26.28c-23.67,30.24-50.76,29.07-63.54,40.32-11.16,11.16-9.45,22.23-12.06,29.16s-17.64,13.78-18.72,15.71,6.93.43,6.93.43"/><path class="cls-1" d="M1035.45,249.37c6,4,7.67,8.85,21.83,9.09s20.4.72,26.64,5.64,20.88,25.08,27.72,49.56c-9.72-13.56-20.88-16.68-34-19.2s-20.52-8.12-24-12.95c-6.84-9.49.48-15.49-10.2-22.69s-11.11-6.38-14.44-7.57S1035.45,249.37,1035.45,249.37Z"/><path class="cls-1" d="M1042.51,252.1c1.25-2,13.36-14,14.21-18.28s.08-25.71,4.94-32.19,33-27.75,36.87-33.06c4.83-5.49,6.71-8.16,8.55-19.08,1.44,13.95-7.38,61-17.37,72.09s-27.72,14.13-33,18.54-6.09,6.42-7.73,9.78S1042.51,252.1,1042.51,252.1Z"/><path class="cls-1" d="M1075.46,248.36c4.54,2.61,7,2.62,12.19,6.29s12.93,17.81,19.5,23.25c8,6.61,44.16,11.26,57.12,25.41-9.63-19.08-30.73-41.39-38.85-46.4s-24.13-3.75-33.16-3.68c-8.64-1-6-3.61-10.17-5.23S1075.46,248.36,1075.46,248.36Z"/><path class="cls-1" d="M1100.61,248.81c4.65-6,21.63-10.69,33-13.5,12.1-3.59,36.76-41.24,46.57-66.44-19.25,24.84-41.58,26.26-56.87,42.4-13.5,17.19-5.87,18.36-20,31.95-9.61,6.38-7.35,6.14-7.35,6.14Z"/><path class="cls-1" d="M1121.89,246.27c5.2,2.11,14.57,2.46,19.37,6.29s8.74,12.34,14.72,16c7.28,4.45,28.43,5.11,42,5.23s17.9,7.95,20.94,11c-7.1-10.88-34.88-35.87-44.5-38.16-9-3-18.54-3.11-35.12,1-4.07.8-6.54-1.72-8.15-2.92S1121.89,246.27,1121.89,246.27Z"/><path class="cls-1" d="M1160.32,242.64c3.43-4.61,24.49-16.5,29.58-23.37s21.87-56,20-67c-2.49,17.73-32.57,34.76-39.22,47.46-4.32,9.28-4,24.81-4.41,30.17s-12.52,12-14.16,14.28S1160.32,242.64,1160.32,242.64Z"/><path class="cls-1" d="M1181,240.31c6.6-2,28.06-3,39.36-10.82s19.56-36.83,39.36-44.25c-24.49.76-48.54,11.52-55.57,18.24s-16,29.5-20.83,35.08A14.27,14.27,0,0,1,1181,240.31Z"/><path d="M532.63,230.51a5.67,5.67,0,0,1-.37-.91c0-.18,0-.28,0-.29l.3-.16.59-.34,1.17-.66,2.36-1.33,4.71-2.66c.79-.43,1.56-.89,2.36-1.31l2.41-1.2,4.83-2.41c1.62-.79,3.21-1.62,4.84-2.38l4.93-2.16c3.3-1.41,6.54-2.95,9.91-4.16a297.55,297.55,0,0,1,40.78-12.87,353.3,353.3,0,0,1,41.79-7.61q21-2.56,42.16-3.15a536.73,536.73,0,0,1,165.89,22.63,348.63,348.63,0,0,1,39.53,14.66c12.09,5.44,25.1,9.19,38.35,12.13a396.89,396.89,0,0,0,40.39,6.51c13.61,1.55,27.3,2.56,41,3.24,27.45,1.34,55,1.29,82.54.13,13.76-.6,27.51-1.47,41.23-2.75,6.85-.66,13.7-1.4,20.51-2.32a191.17,191.17,0,0,0,20.21-3.66l.65,2.28a195.65,195.65,0,0,1-20.4,4.39c-6.84,1.15-13.7,2.11-20.57,3-13.74,1.73-27.52,3.06-41.33,4.1-27.62,2.06-55.34,3-83.09,2.55-13.88-.25-27.77-.89-41.65-2.05a407.36,407.36,0,0,1-41.55-5.47c-13.77-2.64-27.56-6.15-40.86-11.66a336.42,336.42,0,0,0-38.51-13C844.67,218,831.36,215,818,212.49s-26.9-4.49-40.44-6A507.34,507.34,0,0,0,696.09,204q-20.3,1.1-40.35,4.1a334.19,334.19,0,0,0-39.46,8.27,278.5,278.5,0,0,0-37.85,13c-3.1,1.2-6.06,2.72-9.07,4.1l-4.51,2.11c-1.48.74-2.93,1.55-4.39,2.32l-4.39,2.33-2.19,1.16c-.72.4-1.42.84-2.13,1.26l-4.24,2.55-2.12,1.27-1.07.63-.53.32-.26.16s-.12,0-.26-.13a6.87,6.87,0,0,1-.65-.74Z"/></svg>